# xmcd
#
# Track frame offsets: 
#        150
#        14965
#        31395
#        42655
#        56068
#        67020
#        79813
#        89470
#        101773
#        112765
#        122850
#        133195
#        143813
#        152140
#        168350
#        180400
#        191410
#        202483
#        216878
#        231923
#
# Disc length: 3256 seconds
#
# Revision: 4
# Processed by: cddbd v1.5.2PL0 Copyright (c) Steve Scherf et al.
# Submitted via: ExactAudioCopyFreeDBPlugin 1.0
#
DISCID=310cb614
DTITLE=Various Artist - Sweet Dreams Of Country - D3
DYEAR=1989
DGENRE=Country
TTITLE0=Floyd Cramer - You Light Up My Life
TTITLE1=Floyd Cramer - Georgia On My Mind
TTITLE2=Floyd Cramer - Little Green Apples
TTITLE3=Jim Reeves - Danny Boy
TTITLE4=Floyd Cramer - The Waltz You Saved For Me
TTITLE5=Dolly Parton - Daddy
TTITLE6=Tom T. Hall - I Love
TTITLE7=Loretta Lynn - Blue Kentucky Girl
TTITLE8=Porter Wagoner - Green, Green Grass Of Home
TTITLE9=The Sons of the Pioneers - Don't Fence Me In
TTITLE10=Burl Ives - Tumbling Tubleweeds
TTITLE11=Patsy Cline - San Antonio Rose
TTITLE12=Slim Whitman - You Belong To My Heart
TTITLE13=Willie Nelson - The Streets Of Laredo
TTITLE14=Roy Rogers and Dale Evans - How Great Thou Art
TTITLE15=The Sons of the Pioneers - I Believe
TTITLE16=Tennessee Ernie Ford - He Touched Me
TTITLE17=Jimmy Dean - It Is No Secret (What God Can Do)
TTITLE18=Elvis Presley - Take My Hand, Precious Lord
TTITLE19=Eddy Arnold - May The Good Lord Bless And Keep You
EXTD=
EXTT0=
EXTT1=
EXTT2=
EXTT3=
EXTT4=
EXTT5=
EXTT6=
EXTT7=
EXTT8=
EXTT9=
EXTT10=
EXTT11=
EXTT12=
EXTT13=
EXTT14=
EXTT15=
EXTT16=
EXTT17=
EXTT18=
EXTT19=
PLAYORDER=
